<svg width="72" height="32" viewBox="0 0 72 32" fill="none" xmlns="http://www.w3.org/2000/svg">
<path d="M4.41873 32H0.00856198L0 31.6582C0.752034 31.6582 1.33853 31.0767 1.33996 30.3247L1.51263 1.70956C1.51406 0.957524 0.896162 0.34177 0.144128 0.34177L0.169814 0H4.57999L4.58855 0.34177C3.83651 0.34177 3.25715 0.957524 3.25644 1.70956L3.19579 14.4735H14.7596L14.8124 1.70956C14.8131 0.957524 14.2301 0.34177 13.4781 0.34177L13.4688 0H17.9132L17.8876 0.34177C17.1698 0.34177 16.5562 0.957524 16.5555 1.70956L16.417 30.3247C16.4156 31.0767 16.9914 31.6582 17.7434 31.6582L17.752 32H13.3076L13.299 31.6582C14.051 31.6582 14.6718 31.0767 14.6732 30.3247L14.7681 14.8152L3.2015 14.8231L3.08377 30.3254C3.08305 31.0774 3.69239 31.6589 4.44442 31.6589L4.41873 32Z" fill="#0A0908"/>
<path d="M57.8559 32H53.4458L53.4372 31.6582C54.1892 31.6582 54.7757 31.0767 54.7772 30.3247L54.9498 1.70956C54.9513 0.957524 54.3334 0.34177 53.5813 0.34177L53.607 0H58.0172L58.0257 0.34177C57.2737 0.34177 56.6943 0.957524 56.6936 1.70956L56.633 14.4735H68.1968L68.2496 1.70956C68.2503 0.957524 67.6673 0.34177 66.9153 0.34177L66.906 0H71.3504L71.3248 0.34177C70.607 0.34177 69.9934 0.957524 69.9926 1.70956L69.8542 30.3247C69.8528 31.0767 70.4286 31.6582 71.1806 31.6582L71.1892 32H66.7448L66.7362 31.6582C67.4882 31.6582 68.109 31.0767 68.1104 30.3247L68.2053 14.8152L56.6387 14.8231L56.521 30.3254C56.5202 31.0774 57.1296 31.6589 57.8816 31.6589L57.8559 32Z" fill="#0A0908"/>
<path d="M23.5307 32H19.1205L19.1112 31.6582C19.8632 31.6582 20.4505 31.0767 20.4854 30.3247L20.6238 1.70956C20.6245 0.957524 20.0074 0.34177 19.2553 0.34177L19.281 0H23.6912L23.7005 0.34177C22.9484 0.34177 22.3691 0.957524 22.3684 1.70956L22.195 30.3247C22.1943 31.0767 22.8036 31.6582 23.5556 31.6582L23.5307 32Z" fill="#0A0908"/>
<path d="M25.0954 15.7606C25.2623 7.11151 32.4174 0.0342483 41.0929 0C45.4345 0 49.3338 1.67531 52.1736 4.41018H52.2078L52.1857 8.8546H51.8097L51.8197 8.44434C51.8539 6.32451 50.8522 4.30743 49.1647 3.04239C46.9065 1.36708 44.1445 0.34177 41.1706 0.34177C33.3078 0.34177 26.8898 7.34982 26.8249 15.9996C26.7942 24.6488 33.1287 31.6575 41.0258 31.6575H50.3249L50.4262 14.8145H39.8628L39.8806 14.4385H40.2224H52.1536L52.1393 14.6775L52.043 31.9993H41.0008C39.8721 31.9993 38.7554 31.8965 37.6759 31.6575C30.3882 30.1199 24.9406 23.5557 25.0954 15.7606Z" fill="#0A0908"/>
<path d="M59.5555 19.7783C60.2569 19.7783 60.8919 20.1964 61.3492 20.8885C61.3492 20.8885 61.3492 20.8885 61.3592 20.8885C61.5355 21.1233 62.1412 22.3512 61.4399 24.0879L61.3557 24.2834L58.0743 31.8694H60.8013C61.4249 31.8694 61.9336 31.1901 61.9372 30.3418L61.94 30.3025H62.0378L62.0314 32H57.4435L57.5092 31.8694L61.0346 23.7083C61.5433 22.5068 61.2957 20.9792 60.4224 20.2478C60.1613 20.0259 59.8687 19.9082 59.5569 19.9082C58.583 19.9082 57.7546 21.1226 57.5256 22.7679C57.5085 22.8985 57.492 23.0291 57.4771 23.1725L57.4806 23.2509H57.3829L57.3872 20.7308H57.4849C57.487 20.8614 57.5691 20.9399 57.6469 20.9399C57.6861 20.9399 57.7204 20.9135 57.7503 20.8614C57.9401 20.6003 58.1463 20.3784 58.3711 20.2086C58.725 19.9353 59.1274 19.7783 59.5555 19.7783Z" fill="#0A0908"/>
<path d="M64.9204 19.7783C65.6217 19.7783 66.2568 20.1964 66.7141 20.8885C66.7141 20.8885 66.7141 20.8885 66.7241 20.8885C66.9003 21.1233 67.5061 22.3512 66.8047 24.0879L66.7205 24.2834L63.4391 31.8694H66.1661C66.7897 31.8694 67.2985 31.1901 67.302 30.3418L67.3049 30.3025H67.4026L67.3962 32H62.8084L62.874 31.8694L66.3995 23.7083C66.9082 22.5068 66.6606 20.9792 65.7873 20.2478C65.5261 20.0259 65.2336 19.9082 64.9218 19.9082C63.9479 19.9082 63.1195 21.1226 62.8904 22.7679C62.8733 22.8985 62.8562 23.0291 62.8419 23.1725L62.8455 23.2509H62.7477L62.752 20.7308H62.8498C62.8519 20.8614 62.934 20.9399 63.0117 20.9399C63.051 20.9399 63.0852 20.9135 63.1152 20.8614C63.305 20.6003 63.5112 20.3784 63.7359 20.2086C64.0898 19.9353 64.4915 19.7783 64.9204 19.7783Z" fill="#0A0908"/>
</svg>
